# xmcd CD database file
#
# Track frame offsets:
#	150
#	16437
#	33258
#	53419
#	68952
#	84907
#	102205
#	121656
#	139933
#	156189
#	172928
#
# Disc length: 2684 seconds
#
# Revision: 0
# Processed by: cddbd v1.5.2PL0 Copyright (c) Steve Scherf et al.
# Submitted via: CDex 1.51
#
DISCID=7e0a7a0b
DTITLE=Chely Wright - Lifted Off the Ground
DYEAR=2010
DGENRE=Country
TTITLE0=Broken 
TTITLE1=Heavenly Days
TTITLE2=Hang Out In Your Heart
TTITLE3=Notes To The Coroner 
TTITLE4=Snow Globe 
TTITLE5=Like Me
TTITLE6=That Train 
TTITLE7=Damn Liar 
TTITLE8=Wish Me Away 
TTITLE9=Object Of Your Rejection (Dirty)
TTITLE10=Shadows Of Doubt 
EXTD=YEAR: 2010
EXTT0=
EXTT1=
EXTT2=
EXTT3=
EXTT4=
EXTT5=
EXTT6=
EXTT7=
EXTT8=
EXTT9=
EXTT10=
PLAYORDER=
